<svg xmlns="http://www.w3.org/2000/svg" version="1.1" xmlns:xlink="http://www.w3.org/1999/xlink" width="512" height="512" x="0" y="0" viewBox="0 0 512 512" style="enable-background:new 0 0 512 512" xml:space="preserve"><g><path d="M488 416H256v-48c0-35.888-52.71-64-120-64S16 332.112 16 368v64c0 35.888 52.71 64 120 64h352a8 8 0 0 0 8-8v-64a8 8 0 0 0-8-8ZM60.382 335.558C80.446 325.525 107.302 320 136 320s55.554 5.525 75.618 15.558C229.655 344.576 240 356.4 240 368s-10.345 23.424-28.382 32.442C191.554 410.475 164.698 416 136 416s-55.554-5.525-75.618-15.558C42.345 391.424 32 379.6 32 368s10.345-23.424 28.382-32.442ZM240 400.39V416h-23.836A94.572 94.572 0 0 0 240 400.39ZM480 480H136c-28.698 0-55.553-5.525-75.618-15.558C42.345 455.424 32 443.6 32 432v-31.61c8.114 7.516 19.011 14.023 32 19.145V448h16v-23.157a208.006 208.006 0 0 0 48 7.018V456h16v-24h48v24h16v-24h48v24h16v-24h48v24h16v-24h48v24h16v-24h48v24h16v-24h16Z" fill="#000000" opacity="1" data-original="#000000"></path><path d="M136 392c27.874 0 56-7.42 56-24s-28.126-24-56-24-56 7.42-56 24 28.126 24 56 24Zm0-32c22.111 0 35.518 5.043 39.274 8-3.756 2.957-17.163 8-39.274 8s-35.518-5.043-39.274-8c3.756-2.957 17.163-8 39.274-8ZM472 176H296a24.027 24.027 0 0 0-24 24v144a24.027 24.027 0 0 0 24 24h60l21.6 28.8a8 8 0 0 0 12.8 0L412 368h60a24.027 24.027 0 0 0 24-24V200a24.027 24.027 0 0 0-24-24Zm8 168a8.01 8.01 0 0 1-8 8h-64a8 8 0 0 0-6.4 3.2L384 378.666 366.4 355.2a8 8 0 0 0-6.4-3.2h-64a8.01 8.01 0 0 1-8-8V200a8.01 8.01 0 0 1 8-8h176a8.01 8.01 0 0 1 8 8Z" fill="#000000" opacity="1" data-original="#000000"></path><path d="M440 224h-16v-16h-16v16h-48v-16h-16v16h-16a8 8 0 0 0-8 8v96a8 8 0 0 0 8 8h112a8 8 0 0 0 8-8v-96a8 8 0 0 0-8-8Zm-8 96h-96v-48h96Zm0-64h-96v-16h96Z" fill="#000000" opacity="1" data-original="#000000"></path><path d="M40 104h48v90.667L57.6 235.2l12.8 9.6L88 221.333V296h16v-96l16-21.333V288h16V157.333l26.394-35.192L184 132.944V288h16V140.944l16 8V304h16V156.944l20.422 10.211a8.001 8.001 0 0 0 8.7-1.009L280 150.414V160h16v-22.92l16-13.333V160h16v-49.586l25.102-20.919L376 100.945V160h16v-51.056l16 8V160h16v-35.056l20.422 10.211 7.156-14.31L424 107.055V88h48v72h16V80a8 8 0 0 0-8-8h-64a8 8 0 0 0-8 8v19.056l-16-8V24a8 8 0 0 0-8-8h-64a8 8 0 0 0-8 8v78.92l-16 13.333V80a8 8 0 0 0-8-8h-64a8 8 0 0 0-8 8v51.056l-16-8V24a8 8 0 0 0-8-8h-64a8 8 0 0 0-8 8v128l-16 21.334V96a8 8 0 0 0-8-8H32a8 8 0 0 0-8 8v216h16Zm288-72h48v51.056l-20.422-10.211a8 8 0 0 0-8.7 1.009L328 89.586Zm-96 56h48v41.586l-25.102 20.919L232 139.055Zm-96-56h48v83.056l-20.422-10.211a8 8 0 0 0-9.978 2.355L136 130.667ZM360 288h16v16h-16zM392 288h16v16h-16z" fill="#000000" opacity="1" data-original="#000000"></path></g></svg>
