<svg xmlns="http://www.w3.org/2000/svg" version="1.1" xmlns:xlink="http://www.w3.org/1999/xlink" width="512" height="512" x="0" y="0" viewBox="0 0 16.933 16.933" style="enable-background:new 0 0 512 512" xml:space="preserve"><g><g fill="#00003a"><path d="M7.321 4.068c-.353.018-.325.547.028.53h2.662c.353 0 .353-.53 0-.53H7.32zM12.896 10.765l-.493.854-.107-.186a.265.265 0 0 0-.416-.055l-.416.416h-1.232c-.353 0-.353.53 0 .53h1.341c.07 0 .138-.029.188-.078l.248-.249.164.284a.265.265 0 0 0 .459 0l.402-.698.215.805c.091.341.603.205.512-.137l-.381-1.422a.262.262 0 0 0-.484-.064zM4.483 6.523a.272.272 0 0 0-.264.283v.107c-1.035.312-.777 1.846.254 1.846.575 0 .5.839.031.839-.223 0-.377-.105-.433-.316-.088-.348-.61-.208-.512.137.088.33.348.573.66.661v.046c-.008.36.537.36.529 0v-.052c1.042-.41.683-1.845-.254-1.845-.585 0-.508-.847-.034-.847.26 0 .385.13.437.324.086.352.615.209.511-.139a.945.945 0 0 0-.66-.66v-.101c0-.199-.132-.288-.265-.283z" fill="#00003a" opacity="1" data-original="#00003a"></path><path d="M6.664.266a1.59 1.59 0 0 0-1.589 1.588V4.92a3.6 3.6 0 0 0-.583-.052A3.611 3.611 0 0 0 .884 8.474c0 .353.53.353.53 0 0-1.703 1.375-3.077 3.078-3.077S7.569 6.77 7.569 8.474a3.073 3.073 0 0 1-3.077 3.077 3.073 3.073 0 0 1-2.74-1.675c-.156-.33-.65-.076-.47.243a3.61 3.61 0 0 0 3.21 1.962c.199 0 .393-.02.583-.051v1.419H3.442c-.354 0-.354.53 0 .53h7.5c.078.95.495 1.8 1.116 2.187H4.794a2.129 2.129 0 0 1-2.117-2.418c0-.362-.448-.361-.526-.068a2.67 2.67 0 0 0 2.643 3.016h9.689c.876 0 1.588-.714 1.588-1.59V5.184a.265.265 0 0 0-.07-.182c-2.143-2.29-3.596-3.94-4.221-4.648a.265.265 0 0 0-.198-.088zm0 .53h4.8c.595.673 1.888 2.132 3.739 4.122h-2.297a1.05 1.05 0 0 1-1.06-1.058V1.854c0-.37-.53-.351-.53 0V3.86c0 .876.714 1.588 1.59 1.588h2.635v9.658c0 .591-.466 1.06-1.058 1.06h-.936c-1.088 0-2.06-.96-2.06-2.418a.265.265 0 0 0-.261-.3H5.604v-1.544a3.624 3.624 0 0 0 2.275-2.197h5.874c.354 0 .354-.53 0-.53H8.027c.151-.52.073-1.483-.235-2.155h5.961c.354 0 .354-.53 0-.53H7.501a3.625 3.625 0 0 0-1.897-1.448v-3.19A1.05 1.05 0 0 1 6.664.796z" fill="#00003a" opacity="1" data-original="#00003a"></path></g></g></svg>
